<svg width="32" height="32" viewBox="0 0 32 32" fill="none" xmlns="http://www.w3.org/2000/svg">
  <!-- Cup body -->
  <path d="M6 12V24C6 25.1046 6.89543 26 8 26H20C21.1046 26 22 25.1046 22 24V12H6Z" fill="#3B82F6" stroke="#1E40AF" stroke-width="2"/>
  <!-- Handle -->
  <path d="M22 14C24 14 26 16 26 18C26 20 24 22 22 22" stroke="#1E40AF" stroke-width="2" fill="none"/>
  <!-- Coffee/liquid -->
  <ellipse cx="14" cy="14" rx="7" ry="2" fill="#60A5FA"/>
  <!-- Steam lines -->
  <path d="M10 8C10 8 10 6 11 6C12 6 12 8 12 8" stroke="#9CA3AF" stroke-width="1.5" stroke-linecap="round"/>
  <path d="M14 8C14 8 14 6 15 6C16 6 16 8 16 8" stroke="#9CA3AF" stroke-width="1.5" stroke-linecap="round"/>
  <path d="M18 8C18 8 18 6 19 6C20 6 20 8 20 8" stroke="#9CA3AF" stroke-width="1.5" stroke-linecap="round"/>
</svg> 